<svg width="100" height="100" viewBox="0 0 100 100" fill="none" xmlns="http://www.w3.org/2000/svg">
<path d="M27.5049 45.1871L32.6129 64.4405L21.611 75.4425L12.3773 41.4543L27.5049 45.1871Z" fill="white"/>
<path d="M45.1817 27.505L64.435 32.613L75.4369 21.611L41.4489 12.3773L45.1817 27.505Z" fill="white"/>
<path d="M41.4321 27.2876L27.4939 41.2471L13.1521 38.3001L38.2993 13.1528L41.4321 27.2876Z" fill="white"/>
<path d="M54.8095 72.495L35.5562 67.387L24.5543 78.389L58.5423 87.6227L54.8095 72.495Z" fill="white"/>
<path d="M72.4951 54.8144L67.3871 35.561L78.389 24.559L87.6227 58.5472L72.4951 54.8144Z" fill="white"/>
<path d="M64.8764 72.4105L77.4705 87.8891L84.7168 83.7054L57.8077 51.5009L64.8764 72.4105Z" fill="white"/>
</svg>
