<svg width="409" height="100" viewBox="0 0 409 100" fill="none" xmlns="http://www.w3.org/2000/svg">
<path d="M27.5049 45.1871L32.6129 64.4405L21.611 75.4425L12.3773 41.4543L27.5049 45.1871Z" fill="white"/>
<path d="M45.1817 27.505L64.435 32.613L75.4369 21.611L41.4489 12.3773L45.1817 27.505Z" fill="white"/>
<path d="M41.4321 27.2876L27.4939 41.2471L13.1521 38.3001L38.2993 13.1528L41.4321 27.2876Z" fill="white"/>
<path d="M54.8095 72.495L35.5562 67.387L24.5543 78.389L58.5423 87.6227L54.8095 72.495Z" fill="white"/>
<path d="M72.4951 54.8144L67.3871 35.561L78.389 24.559L87.6227 58.5472L72.4951 54.8144Z" fill="white"/>
<path d="M64.8764 72.4105L77.4705 87.8891L84.7168 83.7054L57.8077 51.5009L64.8764 72.4105Z" fill="white"/>
<path d="M409.001 38.6934V63.9511H403.33V47.1655L394.875 57.8745L399.543 63.9511H393.572L380.326 47.1655V63.9511H374.655V38.6934H380.326L391.828 53.8234L403.33 38.6934H409.001Z" fill="white"/>
<path d="M364.047 38.6934H369.754V63.9511H350.467C349.163 63.9511 347.907 63.6928 346.697 63.1761C345.5 62.6595 344.466 61.9725 343.597 61.1153C342.74 60.2464 342.053 59.219 341.537 58.033C341.02 56.8353 340.762 55.5847 340.762 54.2813V38.6934H346.468V54.2813C346.468 55.8078 347.009 57.1171 348.089 58.2091C349.169 59.2894 350.473 59.8296 351.999 59.8296H364.047V38.6934Z" fill="white"/>
<path d="M338.334 42.8325H327.237V63.9511H321.583V42.8325H310.487V38.6934H338.334V42.8325Z" fill="white"/>
<path d="M278.729 63.9511V38.6934H284.436L301.979 53.2421V38.6934H307.651V63.9511H301.979V59.6534L284.436 45.1223V63.9511H278.729Z" fill="white"/>
<path d="M254.756 38.6934H262.383L276.051 63.9511H270.009L267.543 59.4597H249.595L247.182 63.9511H241.088L254.756 38.6934ZM251.85 55.2853H265.306L258.596 42.8325L251.85 55.2853Z" fill="white"/>
<path d="M232.757 38.6934H238.464V63.9511H219.177C217.874 63.9511 216.617 63.6928 215.408 63.1761C214.21 62.6595 213.177 61.9725 212.308 61.1153C211.451 60.2464 210.764 59.219 210.247 58.033C209.73 56.8353 209.472 55.5847 209.472 54.2813V38.6934H215.179V54.2813C215.179 55.8078 215.719 57.1171 216.799 58.2091C217.88 59.2894 219.183 59.8296 220.71 59.8296H232.757V38.6934Z" fill="white"/>
<path d="M205.366 45.2439V52.3457C205.366 54.2761 204.929 56.0656 204.055 57.7143C203.196 59.3629 202.012 60.7226 200.504 61.7935L205.366 68.0499H199.004L195.664 63.8015C195.115 63.9001 194.48 63.9494 193.762 63.9494H177.212C175.648 63.9494 174.154 63.6465 172.731 63.0406C171.308 62.4206 170.075 61.5963 169.032 60.5676C167.99 59.5249 167.158 58.2849 166.538 56.8477C165.918 55.4104 165.608 53.9097 165.608 52.3457V45.2439C165.608 43.6939 165.918 42.2003 166.538 40.763C167.158 39.3258 167.983 38.0928 169.011 37.0642C170.054 36.0215 171.294 35.1901 172.731 34.5701C174.169 33.9501 175.662 33.6401 177.212 33.6401H193.762C195.326 33.6401 196.827 33.9501 198.264 34.5701C199.701 35.1901 200.934 36.0215 201.963 37.0642C203.005 38.1069 203.83 39.3399 204.436 40.763C205.056 42.1862 205.366 43.6798 205.366 45.2439ZM191.902 38.6071H179.072C177.24 38.6071 175.669 39.2553 174.359 40.5517C173.062 41.848 172.414 43.4121 172.414 45.2439V52.3457C172.414 54.1775 173.062 55.7486 174.359 57.059C175.669 58.3554 177.24 59.0036 179.072 59.0036H191.902L187.062 52.7895H193.466L196.721 56.9534C197.947 55.657 198.56 54.1211 198.56 52.3457V45.2439C198.56 43.4121 197.904 41.848 196.594 40.5517C195.298 39.2553 193.734 38.6071 191.902 38.6071Z" fill="white"/>
<path d="M132.174 63.9511V38.6934H137.881L155.424 53.2421V38.6934H161.096V63.9511H155.424V59.6534L137.881 45.1223V63.9511H132.174Z" fill="white"/>
<path d="M120.402 63.9504V41.3981H127.017V63.9504H120.402ZM121.078 32.9013C121.811 32.2672 122.691 31.9502 123.72 31.9502C124.749 31.9502 125.629 32.2672 126.362 32.9013C127.095 33.5354 127.461 34.3034 127.461 35.2052C127.461 36.107 127.095 36.8749 126.362 37.509C125.629 38.1431 124.749 38.4601 123.72 38.4601C122.691 38.4601 121.811 38.1431 121.078 37.509C120.359 36.8749 120 36.107 120 35.2052C120 34.3034 120.359 33.5354 121.078 32.9013Z" fill="white"/>
</svg>
