<svg width="48" height="48" viewBox="0 0 48 48" fill="none" xmlns="http://www.w3.org/2000/svg">
<g clip-path="url(#clip0_409_236)">
<path d="M24 0C17.6362 0 11.5275 2.53013 7.03125 7.02938C2.5304 11.5304 0.00128793 17.6347 0 24C0 30.3626 2.53125 36.4714 7.03125 40.9706C11.5275 45.4699 17.6362 48 24 48C30.3638 48 36.4725 45.4699 40.9688 40.9706C45.4688 36.4714 48 30.3626 48 24C48 17.6374 45.4688 11.5286 40.9688 7.02938C36.4725 2.53013 30.3638 0 24 0Z" fill="url(#paint0_linear_409_236)"/>
<path d="M10.8639 23.7451C17.8614 20.6971 22.5264 18.6876 24.8589 17.7166C31.5264 14.9442 32.9102 14.4627 33.8139 14.4464C34.0127 14.4432 34.4552 14.4924 34.7439 14.7258C34.9839 14.9227 35.0514 15.1889 35.0852 15.3759C35.1152 15.5626 35.1564 15.9882 35.1227 16.3205C34.7627 20.1155 33.1989 29.3247 32.4039 33.5754C32.0702 35.3739 31.4064 35.9769 30.7652 36.0357C29.3702 36.164 28.3127 35.1147 26.9627 34.2301C24.8514 32.8452 23.6589 31.9835 21.6077 30.6324C19.2377 29.0709 20.7752 28.2125 22.1252 26.81C22.4777 26.4429 28.6202 20.8572 28.7364 20.3506C28.7514 20.2872 28.7664 20.051 28.6239 19.9265C28.4852 19.8016 28.2789 19.8444 28.1289 19.8781C27.9152 19.9261 24.5439 22.1566 18.0039 26.5692C17.0477 27.227 16.1814 27.5476 15.4014 27.5307C14.5464 27.5124 12.8964 27.0462 11.6702 26.648C10.1702 26.1594 8.97393 25.901 9.07893 25.0711C9.13143 24.6391 9.72768 24.197 10.8639 23.7451Z" fill="white"/>
</g>
<defs>
<linearGradient id="paint0_linear_409_236" x1="2400" y1="0" x2="2400" y2="4800" gradientUnits="userSpaceOnUse">
<stop stop-color="#2AABEE"/>
<stop offset="1" stop-color="#229ED9"/>
</linearGradient>
<clipPath id="clip0_409_236">
<rect width="48" height="48" fill="white"/>
</clipPath>
</defs>
</svg>
