<svg width="50" height="50" viewBox="0 0 50 50" fill="none" xmlns="http://www.w3.org/2000/svg">
<path d="M38.7766 22.0406L18.0966 1.22437C17.7109 0.836199 17.2531 0.528284 16.7492 0.318205C16.2454 0.108127 15.7054 0 15.16 0C14.0586 0 13.0022 0.44042 12.2234 1.22437C11.8378 1.61255 11.5319 2.07338 11.3232 2.58055C11.1145 3.08772 11.0071 3.63131 11.0071 4.18027C11.0071 5.28895 11.4446 6.35222 12.2234 7.13617L30.0082 24.9964L12.2234 42.8567C11.8358 43.2438 11.5281 43.7042 11.3181 44.2115C11.1081 44.7189 11 45.263 11 45.8126C11 46.3622 11.1081 46.9064 11.3181 47.4137C11.5281 47.921 11.8358 48.3815 12.2234 48.7685C12.6079 49.1587 13.0654 49.4685 13.5694 49.6798C14.0734 49.8912 14.614 50 15.16 50C15.706 50 16.2466 49.8912 16.7506 49.6798C17.2546 49.4685 17.7121 49.1587 18.0966 48.7685L38.7766 27.9523C39.1642 27.5653 39.4719 27.1049 39.6819 26.5975C39.8919 26.0902 40 25.546 40 24.9964C40 24.4469 39.8919 23.9027 39.6819 23.3954C39.4719 22.888 39.1642 22.4276 38.7766 22.0406Z" fill="white"/>
</svg>
